<?xml version="1.0"?>
<svg xmlns="http://www.w3.org/2000/svg" height="512px" viewBox="0 0 512 512" width="512px"><path d="m435.496094 99.632812-134.496094 19.089844v-118.722656c-36.519531 0-263.832031 0-301 0v85.339844l42.011719 20.660156-42.011719 20.660156v205.339844h31v15c0 24.8125 20.1875 45 45 45s45-20.1875 45-45v-15h180v-118.722656l134.480469 19.085937c40.386719 5.773438 76.519531-25.605469 76.519531-66.363281 0-40.710938-36.078125-72.140625-76.503906-66.367188zm-344.496094 202.367188v45c0 8.269531-6.730469 15-15 15s-15-6.730469-15-15v-45h-31v-156.660156l79.988281-39.339844-79.988281-39.339844v-36.660156h121v272zm120 0h-30v-272h30zm228.710938-99.335938-168.710938-23.941406v123.277344h-30v-272h30v123.277344l168.726562-23.941406c22.3125-3.191407 42.273438 14.148437 42.273438 36.664062 0 22.523438-19.964844 39.855469-42.289062 36.664062zm0 0" fill="#FFFFFF"/><path d="m121 467c0-24.8125-20.1875-45-45-45s-45 20.1875-45 45 20.1875 45 45 45 45-20.1875 45-45zm-60 0c0-8.269531 6.730469-15 15-15s15 6.730469 15 15-6.730469 15-15 15-15-6.730469-15-15zm0 0" fill="#FFFFFF"/></svg>
