<!DOCTYPE svg PUBLIC "-//W3C//DTD SVG 20010904//EN" "http://www.w3.org/TR/2001/REC-SVG-20010904/DTD/svg10.dtd">
<svg version="1.0" xmlns="http://www.w3.org/2000/svg" width="481px" height="344px" viewBox="0 0 4810 3440" preserveAspectRatio="xMidYMid meet">
<g id="layer101" fill="#4f67b2" stroke="none">
 <path d="M1239 3170 c-289 -51 -537 -177 -721 -366 -109 -113 -118 -131 -118 -237 0 -222 47 -580 116 -874 70 -304 204 -685 327 -933 50 -101 55 -107 127 -157 41 -29 138 -84 215 -123 216 -108 409 -165 602 -177 l102 -6 30 31 c33 32 42 81 19 99 -7 6 -62 27 -123 47 -60 20 -117 41 -125 47 -13 9 -12 10 2 5 35 -11 255 -54 343 -68 138 -20 625 -17 785 5 140 20 301 51 373 72 26 8 47 12 47 9 0 -7 -38 -21 -205 -79 l-150 -51 -3 -36 c-2 -27 3 -42 20 -58 21 -20 30 -22 118 -17 247 13 555 122 804 287 107 71 115 83 214 311 226 523 372 1159 372 1631 l0 136 -46 61 c-156 208 -450 377 -756 436 -117 22 -259 30 -285 17 -12 -7 -69 -71 -127 -143 -78 -96 -106 -138 -106 -159 0 -35 10 -43 90 -73 70 -26 210 -94 210 -102 0 -2 -12 0 -27 6 -344 135 -629 191 -968 192 -333 0 -599 -50 -927 -176 -38 -14 -68 -24 -68 -22 0 9 161 85 227 108 89 30 93 33 93 70 0 26 -20 57 -101 157 -55 69 -108 131 -117 138 -23 17 -137 14 -263 -8z m688 -916 c29 -14 68 -43 87 -64 51 -57 101 -160 77 -160 -6 0 -11 6 -11 14 0 7 -9 25 -21 40 -17 22 -28 26 -69 26 -41 0 -52 -4 -69 -26 -12 -15 -21 -32 -21 -39 0 -20 -48 -37 -71 -25 -14 8 -19 21 -19 55 0 60 -7 73 -51 96 -37 18 -44 32 -39 69 4 32 23 40 89 40 52 0 79 -6 118 -26z m117 -437 c27 -20 14 -48 -50 -106 -60 -55 -78 -61 -94 -32 -35 67 14 151 87 151 22 0 47 -6 57 -13z m-437 -29 c5 -7 7 -26 4 -43 l-6 -30 -28 36 c-15 20 -27 39 -27 42 0 12 47 7 57 -5z"/>
 </g>
<g id="layer102" fill="#738ad2" stroke="none">
 <path d="M1245 3110 c-204 -36 -355 -97 -529 -213 -72 -49 -195 -164 -241 -227 -34 -46 -35 -50 -35 -141 0 -316 79 -772 201 -1164 71 -226 223 -603 275 -683 23 -35 198 -146 326 -207 197 -93 423 -155 566 -155 60 0 71 3 92 25 13 14 22 26 19 28 -2 1 -35 13 -74 25 -230 76 -447 179 -613 289 -145 96 -142 101 18 24 306 -147 631 -229 988 -251 186 -12 338 -6 562 21 323 39 603 121 874 255 108 53 97 38 -32 -48 -185 -123 -376 -214 -598 -284 -65 -20 -123 -41 -128 -45 -5 -5 -4 -15 4 -24 18 -22 135 -20 255 5 213 44 443 141 629 265 l90 60 52 111 c255 540 424 1226 424 1719 l0 141 -54 64 c-199 240 -538 404 -880 427 l-92 6 -113 -138 c-62 -75 -109 -141 -104 -145 4 -4 33 -15 63 -25 166 -53 387 -199 483 -319 l31 -39 -44 28 c-158 100 -455 220 -685 278 -355 89 -774 94 -1121 12 -214 -51 -487 -156 -663 -257 -46 -26 -86 -46 -88 -44 -8 8 131 139 200 188 85 60 223 129 319 160 38 12 67 26 65 31 -1 5 -50 67 -107 138 l-105 129 -65 -1 c-36 0 -110 -9 -165 -19z m2304 -200 c312 -69 551 -211 679 -403 l26 -39 -23 -176 c-78 -598 -206 -1062 -356 -1288 -72 -108 -108 -137 -250 -205 -317 -150 -668 -232 -1097 -255 l-128 -7 0 112 c0 61 2 111 5 111 2 0 25 -10 50 -22 l45 -22 43 42 43 42 290 0 c212 0 293 3 302 12 8 8 12 49 12 118 0 59 3 168 6 242 l7 135 44 22 44 21 61 -31 61 -31 51 51 50 51 -27 55 c-33 67 -33 72 -4 132 26 57 28 58 95 80 l52 17 0 72 0 72 -63 21 c-62 21 -62 21 -86 82 l-23 61 26 61 26 61 -48 49 -48 48 -61 -26 -61 -27 -61 22 -60 22 -21 64 -22 64 -72 0 -72 0 -17 -52 c-22 -68 -22 -68 -87 -99 l-55 -26 -63 31 -62 30 -51 -50 -51 -51 31 -61 31 -61 -19 -43 c-11 -24 -22 -50 -24 -58 -3 -9 -34 -26 -71 -39 l-66 -23 0 -73 0 -72 58 -18 c31 -10 61 -21 66 -25 4 -5 19 -34 32 -66 l23 -57 -29 -57 -29 -57 52 -51 c52 -50 52 -51 81 -35 16 9 45 22 63 29 l33 14 0 -80 0 -80 -54 0 c-52 0 -55 1 -58 27 -3 22 -12 30 -63 48 -57 22 -61 25 -86 81 l-26 59 28 60 28 60 -51 52 -51 52 -49 -25 -48 -24 0 516 0 517 108 -7 c416 -25 889 -176 1244 -397 44 -27 81 -49 84 -49 8 0 4 106 -7 145 -44 166 -228 362 -457 490 l-71 40 46 47 c55 56 68 58 202 28z m-1622 -631 c99 -38 191 -152 212 -266 11 -59 5 -80 -18 -60 -9 8 -26 18 -38 21 -15 5 -27 21 -34 47 -12 38 -13 39 -59 39 -46 0 -47 -1 -58 -38 -9 -29 -20 -42 -48 -54 -35 -16 -39 -16 -74 2 l-37 19 -31 -32 -30 -32 18 -36 c18 -34 18 -38 2 -73 -13 -28 -25 -39 -55 -48 -37 -11 -38 -12 -35 -57 3 -42 6 -47 35 -56 17 -6 41 -23 53 -38 23 -29 41 -32 123 -21 l45 6 -19 32 c-22 36 -25 109 -5 144 35 64 132 82 198 37 l36 -25 10 28 c6 15 11 22 11 15 2 -28 -49 -121 -88 -161 -65 -67 -138 -96 -236 -96 -60 0 -92 5 -127 21 -53 24 -129 90 -157 137 -19 33 -40 104 -22 76 8 -12 15 -12 44 -2 30 11 40 10 71 -5 l37 -17 30 31 31 30 -19 38 c-19 37 -19 39 -1 76 13 28 27 41 51 47 30 8 32 12 35 54 3 45 2 46 -33 58 -25 8 -40 22 -53 49 -18 37 -18 39 2 79 11 23 27 43 35 45 46 13 144 6 198 -14z m-362 -237 c-4 -23 -21 -51 -47 -76 -38 -38 -39 -42 -34 -90 5 -48 5 -49 -5 -16 -18 58 -5 178 27 246 l28 59 19 -44 c13 -31 17 -54 12 -79z m572 -169 c-3 -10 -5 -2 -5 17 0 19 2 27 5 18 2 -10 2 -26 0 -35z m826 -641 c18 -57 22 -62 48 -62 l29 0 0 -110 0 -110 -246 0 c-135 0 -244 3 -242 8 2 4 11 28 21 53 17 42 23 47 75 64 31 10 61 22 67 27 5 4 48 8 95 8 54 0 91 5 98 12 7 7 12 44 12 96 0 101 14 106 43 14z"/>
 <path d="M3680 1349 c-96 -40 -148 -198 -95 -289 23 -39 80 -66 119 -56 66 16 126 109 126 195 0 112 -71 183 -150 150z"/>
 </g>
<g id="layer103" fill="#9fb6fe" stroke="none">
 <path d="M1320 3119 c-341 -45 -648 -205 -830 -433 -58 -74 -58 -74 -39 -320 40 -535 189 -1101 414 -1572 l62 -131 94 -63 c237 -156 585 -280 791 -280 56 0 68 3 88 25 18 19 20 26 9 29 -8 3 -57 20 -109 37 -198 66 -406 166 -570 275 -52 35 -103 70 -112 77 -36 29 -16 23 57 -15 235 -123 516 -213 830 -265 171 -28 645 -26 850 5 304 45 576 129 849 263 70 34 77 36 51 14 -144 -125 -469 -289 -743 -375 -99 -32 -102 -34 -86 -51 23 -25 102 -25 236 1 211 41 447 138 634 262 l92 61 61 128 c242 507 398 1126 418 1656 l6 172 -28 41 c-47 68 -207 212 -299 269 -153 95 -324 155 -531 186 -174 26 -158 32 -266 -102 -52 -65 -102 -125 -111 -135 -10 -10 -18 -20 -18 -22 0 -2 29 -14 64 -26 79 -26 212 -92 290 -145 63 -41 235 -200 226 -208 -3 -2 -52 22 -110 55 -267 149 -580 249 -920 294 -165 21 -503 14 -665 -14 -308 -55 -618 -166 -844 -304 -35 -21 -66 -36 -69 -34 -8 9 140 150 208 198 82 58 223 128 318 159 39 12 72 25 72 28 -1 4 -49 65 -108 136 -108 130 -108 130 -152 131 -25 1 -74 -2 -110 -7z m2198 -198 c303 -59 548 -197 700 -394 l41 -53 -24 -184 c-90 -701 -243 -1191 -430 -1383 -49 -50 -94 -78 -217 -133 -302 -134 -672 -217 -1025 -231 l-163 -6 0 111 c0 62 2 112 4 112 2 0 25 -9 51 -21 l47 -21 42 41 42 41 280 0 c237 0 283 2 302 16 22 15 22 19 22 253 l0 237 51 22 51 21 58 -28 58 -28 50 51 50 51 -28 56 -29 56 23 57 c13 31 26 60 30 64 4 4 33 16 64 27 l57 20 0 69 0 70 -64 26 c-49 20 -66 32 -71 51 -4 13 -14 39 -24 56 -16 32 -16 34 15 94 l31 62 -50 49 -49 50 -60 -31 -61 -30 -60 26 c-58 26 -61 30 -84 88 l-24 60 -69 0 -70 0 -20 -57 c-11 -31 -23 -60 -27 -64 -4 -4 -32 -17 -63 -29 l-55 -23 -57 28 -58 28 -51 -50 -51 -49 28 -59 28 -59 -21 -53 c-27 -67 -32 -72 -95 -93 l-53 -17 0 -71 0 -72 58 -21 c54 -19 59 -24 85 -80 l29 -59 -30 -61 -30 -61 51 -51 52 -50 58 29 c32 16 62 27 67 24 6 -4 10 -40 10 -81 l0 -75 -62 3 c-59 3 -63 5 -63 27 0 21 -9 27 -64 46 -36 12 -66 28 -68 36 -3 8 -13 35 -25 60 l-20 46 30 60 31 60 -49 48 c-27 27 -54 45 -62 42 -7 -3 -30 -12 -50 -21 l-38 -16 0 515 0 515 74 0 c91 0 290 -25 411 -51 286 -63 593 -183 845 -332 52 -31 98 -53 103 -50 12 8 -1 103 -23 168 -52 152 -209 313 -432 442 -43 25 -78 48 -78 52 0 8 103 100 112 101 4 0 52 -9 106 -19z m-1591 -643 c79 -29 161 -112 193 -193 24 -61 32 -171 17 -242 -19 -99 -94 -195 -184 -239 -65 -32 -178 -43 -239 -24 -97 30 -193 126 -229 230 -9 25 -16 80 -17 125 -2 160 83 290 227 348 59 24 162 21 232 -5z m1011 -980 c5 -7 18 -36 28 -65 15 -42 23 -53 44 -55 25 -3 25 -3 28 -115 l3 -113 -247 0 c-193 0 -245 3 -240 13 2 6 10 29 17 51 7 21 22 42 33 47 12 4 44 18 71 30 37 15 68 21 116 19 36 0 78 2 92 5 27 7 27 8 27 101 0 91 6 108 28 82z"/>
 <path d="M3686 1279 c-42 -33 -66 -90 -66 -158 0 -50 4 -65 26 -91 21 -25 32 -30 52 -25 69 17 121 91 129 182 4 49 2 62 -17 86 -27 34 -84 37 -124 6z"/>
 <path d="M1674 2245 c-9 -14 -14 -28 -11 -31 3 -3 13 8 22 25 19 37 12 41 -11 6z"/>
 <path d="M1555 2133 c4 -10 12 -34 17 -53 6 -19 13 -29 16 -21 6 18 -18 91 -31 91 -5 0 -6 -8 -2 -17z"/>
 <path d="M1758 2082 c3 -24 -2 -32 -32 -50 -21 -13 -41 -36 -51 -58 -20 -48 -11 -57 11 -11 12 25 27 38 55 47 37 13 38 14 37 57 -2 24 -7 43 -13 43 -7 0 -10 -12 -7 -28z"/>
 <path d="M1731 1936 c-10 -11 -9 -21 4 -46 19 -37 30 -35 16 4 -6 14 -8 33 -5 41 8 19 0 19 -15 1z"/>
 <path d="M1664 1904 c17 -40 17 -51 1 -64 -13 -11 -25 -11 -57 -3 -46 12 -74 8 -82 -14 -5 -12 0 -13 23 -8 17 4 43 0 64 -8 34 -15 36 -14 66 17 28 29 30 34 16 46 -8 7 -15 18 -15 26 0 7 -5 16 -12 20 -8 5 -9 2 -4 -12z"/>
 <path d="M1959 1870 c-62 -18 -110 -71 -125 -137 -5 -23 -2 -22 16 12 31 56 50 76 87 91 44 19 72 18 118 -6 47 -24 46 -24 38 -5 -11 32 -90 58 -134 45z"/>
 <path d="M1650 1710 c0 -35 4 -42 28 -50 15 -6 35 -15 45 -20 37 -22 16 11 -24 36 -33 21 -40 30 -36 50 2 13 0 24 -4 24 -5 0 -9 -18 -9 -40z"/>
 </g>
<g id="layer104" fill="#fafbfe" stroke="none">
 <path d="M4130 2638 c41 -45 50 -53 50 -45 0 2 -21 23 -47 47 l-48 45 45 -47z"/>
 <path d="M2983 2293 c-37 -103 -37 -104 -99 -129 l-59 -24 -63 27 -63 27 -47 -47 -46 -47 31 -64 c18 -35 28 -67 23 -72 -5 -5 -17 -31 -28 -58 -18 -46 -23 -51 -78 -70 l-59 -21 0 -69 0 -69 58 -20 c54 -18 60 -23 78 -66 10 -25 23 -53 28 -61 5 -10 -2 -36 -23 -78 l-30 -62 47 -47 47 -47 64 31 c40 20 67 28 73 22 5 -5 32 -18 59 -28 46 -18 50 -22 70 -77 l21 -59 70 -3 69 -3 22 63 c22 63 23 64 83 87 l61 24 60 -29 59 -28 46 46 46 46 -27 64 -26 63 24 60 c24 57 27 60 83 81 l58 22 3 69 3 69 -53 17 c-69 22 -69 22 -97 90 l-24 59 29 59 28 60 -47 46 -46 47 -60 -28 -59 -29 -59 24 c-68 28 -68 28 -90 97 l-17 52 -68 0 c-56 0 -70 -3 -75 -17z m174 -331 c154 -79 186 -270 65 -391 -153 -152 -411 -46 -412 169 0 65 32 141 78 184 68 64 186 80 269 38z"/>
 <path d="M2995 1831 c-35 -15 -75 -62 -85 -102 -35 -128 104 -233 221 -167 41 23 79 85 79 129 -1 42 -36 105 -72 127 -37 23 -104 28 -143 13z"/>
 <path d="M2448 1597 l-48 -21 0 -403 0 -403 48 -24 49 -25 48 49 49 50 -28 58 -28 59 23 61 c24 61 25 62 87 84 l62 23 0 66 0 67 -61 22 c-57 22 -62 26 -85 78 -30 68 -30 70 2 136 l27 54 -48 46 c-27 25 -49 46 -49 45 -1 -1 -22 -10 -48 -22z"/>
 <path d="M3714 1290 c-47 -19 -94 -102 -94 -168 0 -29 27 -94 43 -104 69 -44 182 107 161 217 -9 51 -59 76 -110 55z"/>
 </g>

</svg>